<?xml version="1.0" standalone="no"?>
<svg xmlns:xlink="http://www.w3.org/1999/xlink" id="wave" style="transform:rotate(180deg); transition: 0.3s" viewBox="0 0 1440 100" version="1.1" xmlns="http://www.w3.org/2000/svg"><defs><linearGradient id="sw-gradient-0" x1="0" x2="0" y1="1" y2="0"><stop stop-color="rgba(0, 0, 0, 1)" offset="0%"/><stop stop-color="rgba(0, 0, 0, 1)" offset="100%"/></linearGradient></defs><path style="transform:translate(0, 0px); opacity:1" fill="url(#sw-gradient-0)" d="M0,70L18.5,61.7C36.9,53,74,37,111,35C147.7,33,185,47,222,46.7C258.5,47,295,33,332,36.7C369.2,40,406,60,443,71.7C480,83,517,87,554,86.7C590.8,87,628,83,665,81.7C701.5,80,738,80,775,73.3C812.3,67,849,53,886,53.3C923.1,53,960,67,997,68.3C1033.8,70,1071,60,1108,50C1144.6,40,1182,30,1218,31.7C1255.4,33,1292,47,1329,48.3C1366.2,50,1403,40,1440,30C1476.9,20,1514,10,1551,15C1587.7,20,1625,40,1662,51.7C1698.5,63,1735,67,1772,56.7C1809.2,47,1846,23,1883,11.7C1920,0,1957,0,1994,3.3C2030.8,7,2068,13,2105,21.7C2141.5,30,2178,40,2215,38.3C2252.3,37,2289,23,2326,30C2363.1,37,2400,63,2437,70C2473.8,77,2511,63,2548,58.3C2584.6,53,2622,57,2640,58.3L2658.5,60L2658.5,100L2640,100C2621.5,100,2585,100,2548,100C2510.8,100,2474,100,2437,100C2400,100,2363,100,2326,100C2289.2,100,2252,100,2215,100C2178.5,100,2142,100,2105,100C2067.7,100,2031,100,1994,100C1956.9,100,1920,100,1883,100C1846.2,100,1809,100,1772,100C1735.4,100,1698,100,1662,100C1624.6,100,1588,100,1551,100C1513.8,100,1477,100,1440,100C1403.1,100,1366,100,1329,100C1292.3,100,1255,100,1218,100C1181.5,100,1145,100,1108,100C1070.8,100,1034,100,997,100C960,100,923,100,886,100C849.2,100,812,100,775,100C738.5,100,702,100,665,100C627.7,100,591,100,554,100C516.9,100,480,100,443,100C406.2,100,369,100,332,100C295.4,100,258,100,222,100C184.6,100,148,100,111,100C73.8,100,37,100,18,100L0,100Z"/></svg>